<svg width="640" height="640" viewBox="0 0 640 640" fill="none" xmlns="http://www.w3.org/2000/svg">
  <rect width="640" height="640" rx="56" fill="url(#paint0_linear_1_2)"/>
  <circle cx="468" cy="148" r="66" fill="#7AE7FF" fill-opacity="0.85"/>
  <path d="M88 428C150 366 199 334 262 334C325 334 375 366 436 428V500H88V428Z" fill="#D8F7FF" fill-opacity="0.18"/>
  <path d="M120 410L192 352L258 394L324 322L390 380L460 328L520 382V512H120V410Z" fill="#D8F7FF" fill-opacity="0.35"/>
  <rect x="144" y="438" width="56" height="74" rx="10" fill="#F5F8FB" fill-opacity="0.4"/>
  <rect x="224" y="408" width="72" height="104" rx="10" fill="#F5F8FB" fill-opacity="0.52"/>
  <rect x="320" y="384" width="84" height="128" rx="10" fill="#F5F8FB" fill-opacity="0.62"/>
  <rect x="424" y="416" width="54" height="96" rx="10" fill="#F5F8FB" fill-opacity="0.45"/>
  <path d="M96 524H544" stroke="#BDF4FF" stroke-opacity="0.55" stroke-width="10" stroke-linecap="round"/>
  <defs>
    <linearGradient id="paint0_linear_1_2" x1="64" y1="48" x2="576" y2="592" gradientUnits="userSpaceOnUse">
      <stop stop-color="#0F2B46"/>
      <stop offset="0.5" stop-color="#12304C"/>
      <stop offset="1" stop-color="#081724"/>
    </linearGradient>
  </defs>
</svg>
